<svg width="77" height="23" viewBox="0 0 77 23" fill="none" xmlns="http://www.w3.org/2000/svg">
<path d="M2.2085 3.4835C2.38117 3.4835 2.53167 3.4625 2.66 3.4205C2.78833 3.37617 2.8945 3.31433 2.9785 3.235C3.06483 3.15333 3.129 3.05533 3.171 2.941C3.213 2.82433 3.234 2.69483 3.234 2.5525C3.234 2.41717 3.213 2.29467 3.171 2.185C3.129 2.07533 3.066 1.982 2.982 1.905C2.898 1.828 2.79183 1.76967 2.6635 1.73C2.53517 1.688 2.3835 1.667 2.2085 1.667H1.505V3.4835H2.2085ZM2.2085 0.939C2.54683 0.939 2.83967 0.978666 3.087 1.058C3.33433 1.13733 3.5385 1.24817 3.6995 1.3905C3.8605 1.53283 3.9795 1.70317 4.0565 1.9015C4.13583 2.09983 4.1755 2.31683 4.1755 2.5525C4.1755 2.7975 4.13467 3.02267 4.053 3.228C3.97133 3.431 3.84883 3.606 3.6855 3.753C3.52217 3.9 3.31683 4.01433 3.0695 4.096C2.8245 4.17767 2.5375 4.2185 2.2085 4.2185H1.505V6H0.5635V0.939H2.2085ZM6.18592 2.353C6.45192 2.353 6.69342 2.39617 6.91042 2.4825C7.12976 2.56883 7.31642 2.69133 7.47042 2.85C7.62676 3.00867 7.74692 3.20233 7.83092 3.431C7.91492 3.65967 7.95692 3.91517 7.95692 4.1975C7.95692 4.48217 7.91492 4.73883 7.83092 4.9675C7.74692 5.19617 7.62676 5.391 7.47042 5.552C7.31642 5.713 7.12976 5.83667 6.91042 5.923C6.69342 6.00933 6.45192 6.0525 6.18592 6.0525C5.91759 6.0525 5.67376 6.00933 5.45442 5.923C5.23509 5.83667 5.04726 5.713 4.89092 5.552C4.73692 5.391 4.61676 5.19617 4.53042 4.9675C4.44642 4.73883 4.40442 4.48217 4.40442 4.1975C4.40442 3.91517 4.44642 3.65967 4.53042 3.431C4.61676 3.20233 4.73692 3.00867 4.89092 2.85C5.04726 2.69133 5.23509 2.56883 5.45442 2.4825C5.67376 2.39617 5.91759 2.353 6.18592 2.353ZM6.18592 5.3875C6.48459 5.3875 6.70509 5.28717 6.84742 5.0865C6.99209 4.88583 7.06442 4.59183 7.06442 4.2045C7.06442 3.81717 6.99209 3.522 6.84742 3.319C6.70509 3.116 6.48459 3.0145 6.18592 3.0145C5.88259 3.0145 5.65742 3.11717 5.51042 3.3225C5.36576 3.5255 5.29342 3.8195 5.29342 4.2045C5.29342 4.5895 5.36576 4.8835 5.51042 5.0865C5.65742 5.28717 5.88259 5.3875 6.18592 5.3875ZM9.43195 3.032C9.54395 2.81733 9.67695 2.64933 9.83095 2.528C9.98495 2.40433 10.167 2.3425 10.377 2.3425C10.5426 2.3425 10.6756 2.37867 10.776 2.451L10.72 3.0985C10.7083 3.1405 10.6908 3.17083 10.6675 3.1895C10.6465 3.20583 10.6173 3.214 10.58 3.214C10.545 3.214 10.4925 3.20817 10.4225 3.1965C10.3548 3.18483 10.2883 3.179 10.223 3.179C10.1273 3.179 10.0421 3.193 9.96745 3.221C9.89279 3.249 9.82512 3.28983 9.76445 3.3435C9.70612 3.39483 9.65362 3.45783 9.60695 3.5325C9.56262 3.60717 9.52062 3.69233 9.48095 3.788V6H8.61645V2.409H9.12395C9.21262 2.409 9.27445 2.42533 9.30945 2.458C9.34445 2.48833 9.36779 2.54433 9.37945 2.626L9.43195 3.032ZM12.4248 6.056C12.1121 6.056 11.8718 5.9685 11.7038 5.7935C11.5381 5.61617 11.4553 5.37233 11.4553 5.062V3.0565H11.0878C11.0411 3.0565 11.0014 3.04133 10.9688 3.011C10.9361 2.98067 10.9198 2.93517 10.9198 2.8745V2.5315L11.4973 2.437L11.6793 1.457C11.6909 1.41033 11.7131 1.37417 11.7458 1.3485C11.7784 1.32283 11.8204 1.31 11.8718 1.31H12.3198V2.4405H13.2788V3.0565H12.3198V5.0025C12.3198 5.1145 12.3466 5.202 12.4003 5.265C12.4563 5.328 12.5321 5.3595 12.6278 5.3595C12.6814 5.3595 12.7258 5.35367 12.7608 5.342C12.7981 5.328 12.8296 5.314 12.8553 5.3C12.8833 5.286 12.9078 5.27317 12.9288 5.2615C12.9498 5.2475 12.9708 5.2405 12.9918 5.2405C13.0174 5.2405 13.0384 5.2475 13.0548 5.2615C13.0711 5.27317 13.0886 5.29183 13.1073 5.3175L13.3663 5.7375C13.2403 5.8425 13.0956 5.92183 12.9323 5.9755C12.7689 6.02917 12.5998 6.056 12.4248 6.056ZM15.7293 4.467C15.4796 4.47867 15.2696 4.50083 15.0993 4.5335C14.9289 4.56383 14.7924 4.6035 14.6898 4.6525C14.5871 4.7015 14.5136 4.75867 14.4693 4.824C14.4249 4.88933 14.4028 4.9605 14.4028 5.0375C14.4028 5.18917 14.4471 5.29767 14.5358 5.363C14.6268 5.42833 14.7446 5.461 14.8893 5.461C15.0666 5.461 15.2194 5.4295 15.3478 5.3665C15.4784 5.30117 15.6056 5.20317 15.7293 5.0725V4.467ZM13.7483 2.9095C14.1613 2.5315 14.6583 2.3425 15.2393 2.3425C15.4493 2.3425 15.6371 2.3775 15.8028 2.4475C15.9684 2.51517 16.1084 2.61083 16.2228 2.7345C16.3371 2.85583 16.4234 3.00167 16.4818 3.172C16.5424 3.34233 16.5728 3.529 16.5728 3.732V6H16.1808C16.0991 6 16.0361 5.98833 15.9918 5.965C15.9474 5.93933 15.9124 5.88917 15.8868 5.8145L15.8098 5.5555C15.7188 5.63717 15.6301 5.7095 15.5438 5.7725C15.4574 5.83317 15.3676 5.8845 15.2743 5.9265C15.1809 5.9685 15.0806 6 14.9733 6.021C14.8683 6.04433 14.7516 6.056 14.6233 6.056C14.4716 6.056 14.3316 6.03617 14.2033 5.9965C14.0749 5.9545 13.9641 5.89267 13.8708 5.811C13.7774 5.72933 13.7051 5.62783 13.6538 5.5065C13.6024 5.38517 13.5768 5.244 13.5768 5.083C13.5768 4.992 13.5919 4.90217 13.6223 4.8135C13.6526 4.7225 13.7016 4.63617 13.7693 4.5545C13.8393 4.47283 13.9291 4.39583 14.0388 4.3235C14.1484 4.25117 14.2826 4.18817 14.4413 4.1345C14.6023 4.08083 14.7889 4.03767 15.0013 4.005C15.2136 3.97 15.4563 3.949 15.7293 3.942V3.732C15.7293 3.49167 15.6779 3.31433 15.5753 3.2C15.4726 3.08333 15.3244 3.025 15.1308 3.025C14.9908 3.025 14.8741 3.04133 14.7808 3.074C14.6898 3.10667 14.6093 3.144 14.5393 3.186C14.4693 3.22567 14.4051 3.26183 14.3468 3.2945C14.2908 3.32717 14.2278 3.3435 14.1578 3.3435C14.0971 3.3435 14.0458 3.32833 14.0038 3.298C13.9618 3.26533 13.9279 3.228 13.9023 3.186L13.7483 2.9095ZM18.262 0.799V6H17.3975V0.799H18.262ZM25.4559 3.4695C25.4559 3.8405 25.3941 4.18117 25.2704 4.4915C25.1468 4.80183 24.9729 5.069 24.7489 5.293C24.5249 5.517 24.2554 5.69083 23.9404 5.8145C23.6254 5.93817 23.2754 6 22.8904 6H20.9619V0.939H22.8904C23.2754 0.939 23.6254 1.002 23.9404 1.128C24.2554 1.25167 24.5249 1.4255 24.7489 1.6495C24.9729 1.87117 25.1468 2.13717 25.2704 2.4475C25.3941 2.75783 25.4559 3.0985 25.4559 3.4695ZM24.4899 3.4695C24.4899 3.19183 24.4526 2.94333 24.3779 2.724C24.3056 2.50233 24.1994 2.31567 24.0594 2.164C23.9218 2.01 23.7538 1.89217 23.5554 1.8105C23.3594 1.72883 23.1378 1.688 22.8904 1.688H21.9069V5.251H22.8904C23.1378 5.251 23.3594 5.21017 23.5554 5.1285C23.7538 5.04683 23.9218 4.93017 24.0594 4.7785C24.1994 4.6245 24.3056 4.43783 24.3779 4.2185C24.4526 3.99683 24.4899 3.74717 24.4899 3.4695ZM28.4163 3.7915C28.4163 3.6795 28.3999 3.5745 28.3673 3.4765C28.3369 3.37617 28.2903 3.28867 28.2273 3.214C28.1643 3.13933 28.0838 3.081 27.9858 3.039C27.8901 2.99467 27.7781 2.9725 27.6498 2.9725C27.4001 2.9725 27.2029 3.04367 27.0583 3.186C26.9159 3.32833 26.8249 3.53017 26.7853 3.7915H28.4163ZM26.7678 4.313C26.7818 4.49733 26.8144 4.65717 26.8658 4.7925C26.9171 4.9255 26.9848 5.03633 27.0688 5.125C27.1528 5.21133 27.2519 5.27667 27.3663 5.321C27.4829 5.363 27.6113 5.384 27.7513 5.384C27.8913 5.384 28.0114 5.36767 28.1118 5.335C28.2144 5.30233 28.3031 5.26617 28.3778 5.2265C28.4548 5.18683 28.5213 5.15067 28.5773 5.118C28.6356 5.08533 28.6916 5.069 28.7453 5.069C28.8176 5.069 28.8713 5.09583 28.9063 5.1495L29.1548 5.4645C29.0591 5.5765 28.9518 5.671 28.8328 5.748C28.7138 5.82267 28.5889 5.88333 28.4583 5.93C28.3299 5.97433 28.1981 6.00583 28.0628 6.0245C27.9298 6.04317 27.8003 6.0525 27.6743 6.0525C27.4246 6.0525 27.1924 6.01167 26.9778 5.93C26.7631 5.846 26.5764 5.7235 26.4178 5.5625C26.2591 5.39917 26.1343 5.1985 26.0433 4.9605C25.9523 4.72017 25.9068 4.4425 25.9068 4.1275C25.9068 3.8825 25.9464 3.65267 26.0258 3.438C26.1051 3.221 26.2183 3.03317 26.3653 2.8745C26.5146 2.7135 26.6954 2.58633 26.9078 2.493C27.1224 2.39967 27.3639 2.353 27.6323 2.353C27.8586 2.353 28.0674 2.38917 28.2588 2.4615C28.4501 2.53383 28.6146 2.64 28.7523 2.78C28.8899 2.91767 28.9973 3.088 29.0743 3.291C29.1536 3.49167 29.1933 3.7215 29.1933 3.9805C29.1933 4.11117 29.1793 4.19983 29.1513 4.2465C29.1233 4.29083 29.0696 4.313 28.9903 4.313H26.7678ZM32.033 3.109C32.0097 3.14633 31.9852 3.17317 31.9595 3.1895C31.9339 3.2035 31.9012 3.2105 31.8615 3.2105C31.8195 3.2105 31.774 3.19883 31.725 3.1755C31.6784 3.15217 31.6235 3.1265 31.5605 3.0985C31.4975 3.06817 31.4252 3.04133 31.3435 3.018C31.2642 2.99467 31.1697 2.983 31.06 2.983C30.8897 2.983 30.7555 3.01917 30.6575 3.0915C30.5619 3.16383 30.514 3.25833 30.514 3.375C30.514 3.452 30.5385 3.51733 30.5875 3.571C30.6389 3.62233 30.7054 3.66783 30.787 3.7075C30.871 3.74717 30.9655 3.78333 31.0705 3.816C31.1755 3.84633 31.2817 3.88017 31.389 3.9175C31.4987 3.95483 31.606 3.998 31.711 4.047C31.816 4.09367 31.9094 4.15433 31.991 4.229C32.075 4.30133 32.1415 4.38883 32.1905 4.4915C32.2419 4.59417 32.2675 4.71783 32.2675 4.8625C32.2675 5.03517 32.236 5.195 32.173 5.342C32.1124 5.48667 32.0214 5.61267 31.9 5.72C31.7787 5.825 31.6282 5.90783 31.4485 5.9685C31.2712 6.02683 31.0659 6.056 30.8325 6.056C30.7089 6.056 30.5875 6.04433 30.4685 6.021C30.3519 6 30.2387 5.96967 30.129 5.93C30.0217 5.89033 29.9214 5.84367 29.828 5.79C29.737 5.73633 29.6565 5.678 29.5865 5.615L29.786 5.286C29.8117 5.24633 29.842 5.216 29.877 5.195C29.912 5.174 29.9564 5.1635 30.01 5.1635C30.0637 5.1635 30.1139 5.17867 30.1605 5.209C30.2095 5.23933 30.2655 5.272 30.3285 5.307C30.3915 5.342 30.465 5.37467 30.549 5.405C30.6354 5.43533 30.7439 5.4505 30.8745 5.4505C30.9772 5.4505 31.0647 5.43883 31.137 5.4155C31.2117 5.38983 31.2724 5.35717 31.319 5.3175C31.368 5.27783 31.403 5.23233 31.424 5.181C31.4474 5.12733 31.459 5.0725 31.459 5.0165C31.459 4.9325 31.4334 4.86367 31.382 4.81C31.333 4.75633 31.2665 4.70967 31.1825 4.67C31.1009 4.63033 31.0064 4.59533 30.899 4.565C30.794 4.53233 30.6855 4.49733 30.5735 4.46C30.4639 4.42267 30.3554 4.3795 30.248 4.3305C30.143 4.27917 30.0485 4.215 29.9645 4.138C29.8829 4.061 29.8164 3.9665 29.765 3.8545C29.716 3.7425 29.6915 3.60717 29.6915 3.4485C29.6915 3.3015 29.7207 3.1615 29.779 3.0285C29.8374 2.8955 29.9225 2.78 30.0345 2.682C30.1489 2.58167 30.29 2.50233 30.458 2.444C30.6284 2.38333 30.8244 2.353 31.046 2.353C31.2934 2.353 31.5185 2.39383 31.7215 2.4755C31.9245 2.55717 32.0937 2.6645 32.229 2.7975L32.033 3.109ZM34.8152 4.467C34.5655 4.47867 34.3555 4.50083 34.1852 4.5335C34.0149 4.56383 33.8784 4.6035 33.7757 4.6525C33.673 4.7015 33.5995 4.75867 33.5552 4.824C33.5109 4.88933 33.4887 4.9605 33.4887 5.0375C33.4887 5.18917 33.533 5.29767 33.6217 5.363C33.7127 5.42833 33.8305 5.461 33.9752 5.461C34.1525 5.461 34.3054 5.4295 34.4337 5.3665C34.5644 5.30117 34.6915 5.20317 34.8152 5.0725V4.467ZM32.8342 2.9095C33.2472 2.5315 33.7442 2.3425 34.3252 2.3425C34.5352 2.3425 34.723 2.3775 34.8887 2.4475C35.0544 2.51517 35.1944 2.61083 35.3087 2.7345C35.423 2.85583 35.5094 3.00167 35.5677 3.172C35.6284 3.34233 35.6587 3.529 35.6587 3.732V6H35.2667C35.185 6 35.122 5.98833 35.0777 5.965C35.0334 5.93933 34.9984 5.88917 34.9727 5.8145L34.8957 5.5555C34.8047 5.63717 34.716 5.7095 34.6297 5.7725C34.5434 5.83317 34.4535 5.8845 34.3602 5.9265C34.2669 5.9685 34.1665 6 34.0592 6.021C33.9542 6.04433 33.8375 6.056 33.7092 6.056C33.5575 6.056 33.4175 6.03617 33.2892 5.9965C33.1609 5.9545 33.05 5.89267 32.9567 5.811C32.8634 5.72933 32.791 5.62783 32.7397 5.5065C32.6884 5.38517 32.6627 5.244 32.6627 5.083C32.6627 4.992 32.6779 4.90217 32.7082 4.8135C32.7385 4.7225 32.7875 4.63617 32.8552 4.5545C32.9252 4.47283 33.015 4.39583 33.1247 4.3235C33.2344 4.25117 33.3685 4.18817 33.5272 4.1345C33.6882 4.08083 33.8749 4.03767 34.0872 4.005C34.2995 3.97 34.5422 3.949 34.8152 3.942V3.732C34.8152 3.49167 34.7639 3.31433 34.6612 3.2C34.5585 3.08333 34.4104 3.025 34.2167 3.025C34.0767 3.025 33.96 3.04133 33.8667 3.074C33.7757 3.10667 33.6952 3.144 33.6252 3.186C33.5552 3.22567 33.491 3.26183 33.4327 3.2945C33.3767 3.32717 33.3137 3.3435 33.2437 3.3435C33.183 3.3435 33.1317 3.32833 33.0897 3.298C33.0477 3.26533 33.0139 3.228 32.9882 3.186L32.8342 2.9095ZM4.302 18.47C4.57 18.47 4.788 18.436 4.956 18.368C5.128 18.3 5.262 18.212 5.358 18.104C5.454 17.996 5.52 17.874 5.556 17.738C5.592 17.602 5.61 17.464 5.61 17.324C5.61 17.164 5.588 17.02 5.544 16.892C5.504 16.764 5.432 16.656 5.328 16.568C5.228 16.48 5.094 16.412 4.926 16.364C4.758 16.316 4.546 16.292 4.29 16.292H2.874V18.47H4.302ZM2.874 12.776V14.936H3.93C4.154 14.936 4.356 14.92 4.536 14.888C4.716 14.856 4.868 14.8 4.992 14.72C5.12 14.64 5.216 14.53 5.28 14.39C5.348 14.25 5.382 14.074 5.382 13.862C5.382 13.654 5.356 13.482 5.304 13.346C5.252 13.206 5.172 13.094 5.064 13.01C4.956 12.926 4.818 12.866 4.65 12.83C4.486 12.794 4.29 12.776 4.062 12.776H2.874ZM4.062 11.258C4.666 11.258 5.18 11.314 5.604 11.426C6.028 11.538 6.374 11.696 6.642 11.9C6.91 12.104 7.104 12.352 7.224 12.644C7.348 12.936 7.41 13.262 7.41 13.622C7.41 13.818 7.382 14.008 7.326 14.192C7.27 14.372 7.182 14.542 7.062 14.702C6.942 14.858 6.788 15.002 6.6 15.134C6.412 15.266 6.186 15.38 5.922 15.476C6.498 15.616 6.924 15.842 7.2 16.154C7.476 16.466 7.614 16.87 7.614 17.366C7.614 17.738 7.542 18.084 7.398 18.404C7.254 18.724 7.042 19.004 6.762 19.244C6.486 19.48 6.144 19.666 5.736 19.802C5.328 19.934 4.862 20 4.338 20H0.846V11.258H4.062ZM11.7853 17.468C11.4133 17.484 11.1073 17.516 10.8673 17.564C10.6273 17.612 10.4373 17.672 10.2973 17.744C10.1573 17.816 10.0593 17.898 10.0033 17.99C9.95131 18.082 9.92531 18.182 9.92531 18.29C9.92531 18.502 9.98331 18.652 10.0993 18.74C10.2153 18.824 10.3853 18.866 10.6093 18.866C10.8493 18.866 11.0593 18.824 11.2393 18.74C11.4193 18.656 11.6013 18.52 11.7853 18.332V17.468ZM8.43731 14.642C8.81331 14.31 9.22931 14.064 9.68531 13.904C10.1453 13.74 10.6373 13.658 11.1613 13.658C11.5373 13.658 11.8753 13.72 12.1753 13.844C12.4793 13.964 12.7353 14.134 12.9433 14.354C13.1553 14.57 13.3173 14.828 13.4293 15.128C13.5413 15.428 13.5973 15.756 13.5973 16.112V20H12.7453C12.5693 20 12.4353 19.976 12.3433 19.928C12.2553 19.88 12.1813 19.78 12.1213 19.628L11.9893 19.286C11.8333 19.418 11.6833 19.534 11.5393 19.634C11.3953 19.734 11.2453 19.82 11.0893 19.892C10.9373 19.96 10.7733 20.01 10.5973 20.042C10.4253 20.078 10.2333 20.096 10.0213 20.096C9.73731 20.096 9.47931 20.06 9.24731 19.988C9.01531 19.912 8.81731 19.802 8.65331 19.658C8.49331 19.514 8.36931 19.336 8.28131 19.124C8.19331 18.908 8.14931 18.66 8.14931 18.38C8.14931 18.156 8.20531 17.93 8.31731 17.702C8.42931 17.47 8.62331 17.26 8.89931 17.072C9.17531 16.88 9.54731 16.72 10.0153 16.592C10.4833 16.464 11.0733 16.392 11.7853 16.376V16.112C11.7853 15.748 11.7093 15.486 11.5573 15.326C11.4093 15.162 11.1973 15.08 10.9213 15.08C10.7013 15.08 10.5213 15.104 10.3813 15.152C10.2413 15.2 10.1153 15.254 10.0033 15.314C9.89531 15.374 9.78931 15.428 9.68531 15.476C9.58131 15.524 9.45731 15.548 9.31331 15.548C9.18531 15.548 9.07731 15.516 8.98931 15.452C8.90131 15.388 8.82931 15.312 8.77331 15.224L8.43731 14.642ZM14.7863 20V13.778H15.9383C16.1703 13.778 16.3223 13.882 16.3943 14.09L16.4963 14.426C16.6003 14.318 16.7083 14.22 16.8203 14.132C16.9323 14.04 17.0523 13.962 17.1803 13.898C17.3123 13.83 17.4523 13.778 17.6003 13.742C17.7523 13.702 17.9183 13.682 18.0983 13.682C18.4743 13.682 18.7843 13.78 19.0283 13.976C19.2763 14.168 19.4643 14.426 19.5923 14.75C19.6963 14.558 19.8223 14.394 19.9703 14.258C20.1223 14.122 20.2843 14.012 20.4563 13.928C20.6323 13.844 20.8163 13.782 21.0083 13.742C21.2043 13.702 21.3983 13.682 21.5903 13.682C21.9463 13.682 22.2623 13.736 22.5383 13.844C22.8143 13.948 23.0443 14.102 23.2283 14.306C23.4163 14.506 23.5583 14.754 23.6543 15.05C23.7503 15.342 23.7983 15.674 23.7983 16.046V20H21.9383V16.046C21.9383 15.402 21.6623 15.08 21.1103 15.08C20.8583 15.08 20.6483 15.164 20.4803 15.332C20.3163 15.496 20.2343 15.734 20.2343 16.046V20H18.3743V16.046C18.3743 15.69 18.3043 15.44 18.1643 15.296C18.0243 15.152 17.8183 15.08 17.5462 15.08C17.3783 15.08 17.2183 15.118 17.0663 15.194C16.9183 15.27 16.7783 15.372 16.6463 15.5V20H14.7863ZM26.8533 18.308C26.9933 18.46 27.1453 18.568 27.3093 18.632C27.4733 18.696 27.6393 18.728 27.8073 18.728C27.9833 18.728 28.1453 18.696 28.2933 18.632C28.4413 18.564 28.5673 18.456 28.6713 18.308C28.7793 18.156 28.8633 17.958 28.9233 17.714C28.9833 17.466 29.0133 17.162 29.0133 16.802C29.0133 16.49 28.9893 16.226 28.9413 16.01C28.8973 15.79 28.8293 15.612 28.7373 15.476C28.6493 15.336 28.5373 15.236 28.4013 15.176C28.2693 15.112 28.1173 15.08 27.9453 15.08C27.7173 15.08 27.5193 15.13 27.3513 15.23C27.1833 15.33 27.0173 15.476 26.8533 15.668V18.308ZM26.8533 14.438C27.0933 14.21 27.3553 14.028 27.6393 13.892C27.9273 13.752 28.2473 13.682 28.5993 13.682C28.9513 13.682 29.2713 13.754 29.5593 13.898C29.8473 14.042 30.0933 14.248 30.2973 14.516C30.5013 14.78 30.6573 15.1 30.7653 15.476C30.8773 15.852 30.9333 16.272 30.9333 16.736C30.9333 17.24 30.8693 17.698 30.7413 18.11C30.6133 18.522 30.4313 18.876 30.1953 19.172C29.9633 19.464 29.6853 19.692 29.3613 19.856C29.0373 20.016 28.6793 20.096 28.2873 20.096C28.0993 20.096 27.9313 20.078 27.7833 20.042C27.6353 20.006 27.4993 19.956 27.3753 19.892C27.2513 19.824 27.1373 19.744 27.0333 19.652C26.9333 19.56 26.8353 19.46 26.7393 19.352L26.6733 19.664C26.6413 19.792 26.5893 19.88 26.5173 19.928C26.4453 19.976 26.3493 20 26.2293 20H24.9933V11.018H26.8533V14.438ZM35.0939 17.468C34.7219 17.484 34.4159 17.516 34.1759 17.564C33.9359 17.612 33.7459 17.672 33.6059 17.744C33.4659 17.816 33.3679 17.898 33.3119 17.99C33.2599 18.082 33.2339 18.182 33.2339 18.29C33.2339 18.502 33.2919 18.652 33.4079 18.74C33.5239 18.824 33.6939 18.866 33.9179 18.866C34.1579 18.866 34.3679 18.824 34.5479 18.74C34.7279 18.656 34.9099 18.52 35.0939 18.332V17.468ZM31.7459 14.642C32.1219 14.31 32.5379 14.064 32.9939 13.904C33.4539 13.74 33.9459 13.658 34.4699 13.658C34.8459 13.658 35.1839 13.72 35.4839 13.844C35.7879 13.964 36.0439 14.134 36.2519 14.354C36.4639 14.57 36.6259 14.828 36.7379 15.128C36.8499 15.428 36.9059 15.756 36.9059 16.112V20H36.0539C35.8779 20 35.7439 19.976 35.6519 19.928C35.5639 19.88 35.4899 19.78 35.4299 19.628L35.2979 19.286C35.1419 19.418 34.9919 19.534 34.8479 19.634C34.7039 19.734 34.5539 19.82 34.3979 19.892C34.2459 19.96 34.0819 20.01 33.9059 20.042C33.7339 20.078 33.5419 20.096 33.3299 20.096C33.0459 20.096 32.7879 20.06 32.5559 19.988C32.3239 19.912 32.1259 19.802 31.9619 19.658C31.8019 19.514 31.6779 19.336 31.5899 19.124C31.5019 18.908 31.4579 18.66 31.4579 18.38C31.4579 18.156 31.5139 17.93 31.6259 17.702C31.7379 17.47 31.9319 17.26 32.2079 17.072C32.4839 16.88 32.8559 16.72 33.3239 16.592C33.7919 16.464 34.3819 16.392 35.0939 16.376V16.112C35.0939 15.748 35.0179 15.486 34.8659 15.326C34.7179 15.162 34.5059 15.08 34.2299 15.08C34.0099 15.08 33.8299 15.104 33.6899 15.152C33.5499 15.2 33.4239 15.254 33.3119 15.314C33.2039 15.374 33.0979 15.428 32.9939 15.476C32.8899 15.524 32.7659 15.548 32.6219 15.548C32.4939 15.548 32.3859 15.516 32.2979 15.452C32.2099 15.388 32.1379 15.312 32.0819 15.224L31.7459 14.642ZM39.8108 14.45C39.9308 14.338 40.0548 14.234 40.1828 14.138C40.3108 14.042 40.4468 13.962 40.5908 13.898C40.7388 13.83 40.8968 13.778 41.0648 13.742C41.2368 13.702 41.4228 13.682 41.6228 13.682C41.9628 13.682 42.2628 13.742 42.5228 13.862C42.7868 13.978 43.0088 14.142 43.1888 14.354C43.3688 14.562 43.5048 14.812 43.5968 15.104C43.6888 15.392 43.7348 15.706 43.7348 16.046V20H41.8748V16.046C41.8748 15.742 41.8048 15.506 41.6648 15.338C41.5248 15.166 41.3188 15.08 41.0468 15.08C40.8428 15.08 40.6508 15.124 40.4708 15.212C40.2948 15.296 40.1228 15.412 39.9548 15.56V20H38.0948V13.778H39.2468C39.4788 13.778 39.6308 13.882 39.7028 14.09L39.8108 14.45ZM47.3086 16.562C47.6166 16.562 47.8386 16.486 47.9746 16.334C48.1146 16.178 48.1846 15.978 48.1846 15.734C48.1846 15.482 48.1146 15.284 47.9746 15.14C47.8386 14.996 47.6166 14.924 47.3086 14.924C47.0006 14.924 46.7766 14.996 46.6366 15.14C46.5006 15.284 46.4326 15.482 46.4326 15.734C46.4326 15.854 46.4486 15.964 46.4806 16.064C46.5166 16.164 46.5706 16.252 46.6426 16.328C46.7146 16.4 46.8046 16.458 46.9126 16.502C47.0246 16.542 47.1566 16.562 47.3086 16.562ZM48.7486 20.228C48.7486 20.08 48.6826 19.974 48.5506 19.91C48.4186 19.842 48.2466 19.794 48.0346 19.766C47.8226 19.738 47.5846 19.722 47.3206 19.718C47.0606 19.71 46.8006 19.694 46.5406 19.67C46.4246 19.75 46.3286 19.84 46.2526 19.94C46.1806 20.036 46.1446 20.146 46.1446 20.27C46.1446 20.358 46.1626 20.438 46.1986 20.51C46.2386 20.582 46.3066 20.644 46.4026 20.696C46.4986 20.748 46.6266 20.788 46.7866 20.816C46.9506 20.848 47.1566 20.864 47.4046 20.864C47.6726 20.864 47.8926 20.848 48.0646 20.816C48.2366 20.784 48.3726 20.74 48.4726 20.684C48.5766 20.628 48.6486 20.56 48.6886 20.48C48.7286 20.404 48.7486 20.32 48.7486 20.228ZM50.5846 13.97V14.648C50.5846 14.752 50.5546 14.834 50.4946 14.894C50.4386 14.954 50.3406 15 50.2006 15.032L49.7506 15.134C49.7746 15.222 49.7926 15.312 49.8046 15.404C49.8206 15.496 49.8286 15.592 49.8286 15.692C49.8286 16.004 49.7626 16.284 49.6306 16.532C49.5026 16.78 49.3246 16.992 49.0966 17.168C48.8726 17.34 48.6066 17.474 48.2986 17.57C47.9906 17.662 47.6606 17.708 47.3086 17.708C47.2126 17.708 47.1186 17.706 47.0266 17.702C46.9346 17.694 46.8446 17.682 46.7566 17.666C46.6206 17.75 46.5526 17.844 46.5526 17.948C46.5526 18.052 46.6086 18.128 46.7206 18.176C46.8326 18.22 46.9806 18.252 47.1646 18.272C47.3486 18.288 47.5566 18.3 47.7886 18.308C48.0246 18.312 48.2646 18.326 48.5086 18.35C48.7526 18.37 48.9906 18.406 49.2226 18.458C49.4586 18.51 49.6686 18.594 49.8526 18.71C50.0366 18.826 50.1846 18.982 50.2966 19.178C50.4086 19.37 50.4646 19.616 50.4646 19.916C50.4646 20.196 50.3966 20.47 50.2606 20.738C50.1246 21.006 49.9246 21.244 49.6606 21.452C49.3966 21.66 49.0726 21.826 48.6886 21.95C48.3046 22.078 47.8646 22.142 47.3686 22.142C46.8806 22.142 46.4586 22.096 46.1026 22.004C45.7506 21.912 45.4566 21.79 45.2206 21.638C44.9886 21.49 44.8166 21.318 44.7046 21.122C44.5926 20.926 44.5366 20.722 44.5366 20.51C44.5366 20.234 44.6166 20.004 44.7766 19.82C44.9366 19.636 45.1606 19.488 45.4486 19.376C45.2966 19.284 45.1766 19.166 45.0886 19.022C45.0006 18.878 44.9566 18.692 44.9566 18.464C44.9566 18.372 44.9726 18.276 45.0046 18.176C45.0366 18.072 45.0866 17.972 45.1546 17.876C45.2266 17.776 45.3146 17.682 45.4186 17.594C45.5226 17.506 45.6466 17.428 45.7906 17.36C45.4666 17.188 45.2106 16.962 45.0226 16.682C44.8346 16.398 44.7406 16.068 44.7406 15.692C44.7406 15.38 44.8066 15.1 44.9386 14.852C45.0706 14.6 45.2506 14.388 45.4786 14.216C45.7106 14.04 45.9826 13.906 46.2946 13.814C46.6066 13.718 46.9446 13.67 47.3086 13.67C47.8366 13.67 48.3046 13.77 48.7126 13.97H50.5846ZM53.2625 13.778V20H51.4025V13.778H53.2625ZM53.4545 12.074C53.4545 12.222 53.4245 12.362 53.3645 12.494C53.3045 12.622 53.2225 12.736 53.1185 12.836C53.0145 12.932 52.8925 13.01 52.7525 13.07C52.6165 13.126 52.4705 13.154 52.3145 13.154C52.1625 13.154 52.0205 13.126 51.8885 13.07C51.7565 13.01 51.6385 12.932 51.5345 12.836C51.4345 12.736 51.3545 12.622 51.2945 12.494C51.2385 12.362 51.2105 12.222 51.2105 12.074C51.2105 11.922 51.2385 11.78 51.2945 11.648C51.3545 11.516 51.4345 11.4 51.5345 11.3C51.6385 11.2 51.7565 11.122 51.8885 11.066C52.0205 11.01 52.1625 10.982 52.3145 10.982C52.4705 10.982 52.6165 11.01 52.7525 11.066C52.8925 11.122 53.0145 11.2 53.1185 11.3C53.2225 11.4 53.3045 11.516 53.3645 11.648C53.4245 11.78 53.4545 11.922 53.4545 12.074ZM56.2757 14.45C56.3957 14.338 56.5197 14.234 56.6477 14.138C56.7757 14.042 56.9117 13.962 57.0557 13.898C57.2037 13.83 57.3617 13.778 57.5297 13.742C57.7017 13.702 57.8877 13.682 58.0877 13.682C58.4277 13.682 58.7277 13.742 58.9877 13.862C59.2517 13.978 59.4737 14.142 59.6537 14.354C59.8337 14.562 59.9697 14.812 60.0617 15.104C60.1537 15.392 60.1997 15.706 60.1997 16.046V20H58.3397V16.046C58.3397 15.742 58.2697 15.506 58.1297 15.338C57.9897 15.166 57.7837 15.08 57.5117 15.08C57.3077 15.08 57.1157 15.124 56.9357 15.212C56.7597 15.296 56.5877 15.412 56.4197 15.56V20H54.5597V13.778H55.7117C55.9437 13.778 56.0957 13.882 56.1677 14.09L56.2757 14.45ZM61.1514 19.058C61.1514 18.914 61.1774 18.78 61.2294 18.656C61.2854 18.532 61.3594 18.424 61.4514 18.332C61.5474 18.24 61.6594 18.168 61.7874 18.116C61.9154 18.06 62.0554 18.032 62.2074 18.032C62.3554 18.032 62.4934 18.06 62.6214 18.116C62.7494 18.168 62.8614 18.24 62.9574 18.332C63.0534 18.424 63.1274 18.532 63.1794 18.656C63.2354 18.78 63.2634 18.914 63.2634 19.058C63.2634 19.202 63.2354 19.338 63.1794 19.466C63.1274 19.59 63.0534 19.698 62.9574 19.79C62.8614 19.882 62.7494 19.954 62.6214 20.006C62.4934 20.058 62.3554 20.084 62.2074 20.084C62.0554 20.084 61.9154 20.058 61.7874 20.006C61.6594 19.954 61.5474 19.882 61.4514 19.79C61.3594 19.698 61.2854 19.59 61.2294 19.466C61.1774 19.338 61.1514 19.202 61.1514 19.058ZM66.5305 20H64.4905V11.258H66.5305V20ZM76.1491 15.626C76.1491 16.258 76.0391 16.842 75.8191 17.378C75.6031 17.91 75.2971 18.372 74.9011 18.764C74.5051 19.152 74.0271 19.456 73.4671 19.676C72.9111 19.892 72.2931 20 71.6131 20H68.2171V11.258H71.6131C72.2931 11.258 72.9111 11.368 73.4671 11.588C74.0271 11.808 74.5051 12.112 74.9011 12.5C75.2971 12.888 75.6031 13.35 75.8191 13.886C76.0391 14.418 76.1491 14.998 76.1491 15.626ZM74.0731 15.626C74.0731 15.194 74.0171 14.804 73.9051 14.456C73.7931 14.108 73.6311 13.814 73.4191 13.574C73.2111 13.33 72.9551 13.144 72.6511 13.016C72.3471 12.884 72.0011 12.818 71.6131 12.818H70.2571V18.44H71.6131C72.0011 18.44 72.3471 18.376 72.6511 18.248C72.9551 18.116 73.2111 17.93 73.4191 17.69C73.6311 17.446 73.7931 17.15 73.9051 16.802C74.0171 16.454 74.0731 16.062 74.0731 15.626Z" fill="white"/>
</svg>
