<svg width="338" height="244" viewBox="0 0 338 244" fill="none" xmlns="http://www.w3.org/2000/svg">
<ellipse cx="121.255" cy="220.079" rx="58.5" ry="11.5" fill="#FFD3F8"/>
<ellipse cx="137.255" cy="232.079" rx="58.5" ry="11.5" fill="#FFD3F8"/>
<ellipse cx="157.255" cy="221.079" rx="58.5" ry="11.5" fill="#FFD3F8"/>
<path fill-rule="evenodd" clip-rule="evenodd" d="M132.574 143.787L239.927 78.3662C242.939 76.5308 246.68 79.2086 245.913 82.6514L220.282 197.75C220.282 197.75 205.52 176.442 182.389 162.21C159.258 147.979 132.574 143.787 132.574 143.787Z" fill="url(#paint0_linear_2_54)"/>
<path fill-rule="evenodd" clip-rule="evenodd" d="M132.574 143.787L239.927 78.3662C242.939 76.5308 246.68 79.2086 245.913 82.6514L220.282 197.75C220.282 197.75 205.52 176.442 182.389 162.21C159.258 147.979 132.574 143.787 132.574 143.787Z" fill="url(#paint1_linear_2_54)" style="mix-blend-mode:overlay"/>
<mask id="mask0_2_54" style="mask-type:luminance" maskUnits="userSpaceOnUse" x="132" y="77" width="115" height="121">
<path fill-rule="evenodd" clip-rule="evenodd" d="M132.574 143.787L239.927 78.3662C242.939 76.5308 246.68 79.2086 245.913 82.6514L220.282 197.75C220.282 197.75 205.52 176.442 182.389 162.21C159.258 147.979 132.574 143.787 132.574 143.787Z" fill="white"/>
<path fill-rule="evenodd" clip-rule="evenodd" d="M132.574 143.787L239.927 78.3662C242.939 76.5308 246.68 79.2086 245.913 82.6514L220.282 197.75C220.282 197.75 205.52 176.442 182.389 162.21C159.258 147.979 132.574 143.787 132.574 143.787Z" stroke="white"/>
</mask>
<g mask="url(#mask0_2_54)">
<g style="mix-blend-mode:soft-light">
<path d="M176.755 115.579C176.755 115.579 214.084 110.447 233.007 150.45" stroke="#8C4545" stroke-width="3"/>
</g>
<g style="mix-blend-mode:soft-light">
<path d="M160.755 126.579C160.755 126.579 207.016 122.342 229.755 175.579" stroke="#8C4545" stroke-width="3"/>
</g>
<g style="mix-blend-mode:soft-light">
<path d="M188.755 103.579C188.755 103.579 226.573 95.1053 245.007 138.45" stroke="#8C4545" stroke-width="3"/>
</g>
<g style="mix-blend-mode:soft-light">
<path d="M197.122 92.7362C197.122 92.7362 240.484 83.204 253.496 126.322" stroke="#8C4545" stroke-width="3"/>
</g>
<g style="mix-blend-mode:soft-light">
<path d="M221.381 83.5148C221.381 83.5148 247.305 78.1453 252.381 104.515" stroke="#8C4545" stroke-width="3"/>
</g>
<g style="mix-blend-mode:soft-light">
<path d="M188.568 164.782C188.568 163.205 189.377 129.102 169.755 109.579" stroke="#8C4545" stroke-width="3"/>
</g>
<g style="mix-blend-mode:soft-light">
<path d="M209.568 162.782C209.568 161.205 210.377 127.102 190.755 107.579" stroke="#8C4545" stroke-width="3"/>
</g>
<g style="mix-blend-mode:soft-light">
<path d="M229.749 162.782C229.749 160.948 230.738 121.285 206.755 98.5793" stroke="#8C4545" stroke-width="3"/>
</g>
<g style="mix-blend-mode:soft-light">
<path d="M242.749 146.782C242.749 144.948 243.738 105.285 219.755 82.5793" stroke="#8C4545" stroke-width="3"/>
</g>
</g>
<circle cx="157.255" cy="171.079" r="37.5" fill="url(#paint2_linear_2_54)"/>
<ellipse cx="157.544" cy="194.616" rx="48.3175" ry="29.9637" fill="url(#paint3_linear_2_54)"/>
<circle cx="185.255" cy="185.079" r="37.5" fill="url(#paint4_linear_2_54)"/>
<path d="M159.085 194.64C161.141 199.52 164.08 200.634 167.005 201.521" stroke="#ADFFFC" stroke-width="4" stroke-linecap="round" stroke-linejoin="round"/>
<path d="M102.576 230.341C97.9975 228.056 95.6699 228.863 93.5136 229.819" stroke="#ADFFFC" stroke-width="4" stroke-linecap="round" stroke-linejoin="round"/>
<path d="M137.695 169.358C140.981 169.195 142.256 167.715 143.395 166.197" stroke="white" stroke-width="4" stroke-linecap="round" stroke-linejoin="round"/>
<path d="M156.06 221.928C156.877 222.157 157.957 222.035 159.029 221.897" stroke="white" stroke-width="4" stroke-linecap="round" stroke-linejoin="round"/>
<path d="M149.491 144.519C148.093 147.497 148.801 149.317 149.607 151.036" stroke="#C4A2FF" stroke-width="4" stroke-linecap="round" stroke-linejoin="round"/>
<path d="M173.5 232.41C172.326 232.126 171.937 232.322 171.599 232.539" stroke="#C4A2FF" stroke-width="4" stroke-linecap="round" stroke-linejoin="round"/>
<path d="M129.558 196.179C124.643 198.15 123.478 201.07 122.54 203.978" stroke="#FFA6EA" stroke-width="4" stroke-linecap="round" stroke-linejoin="round"/>
<path d="M181.376 172.223C178.799 174.423 178.688 176.05 178.713 177.612" stroke="#D6FFA9" stroke-width="4" stroke-linecap="round" stroke-linejoin="round"/>
<path d="M101.312 215.438C103.675 216.323 104.775 215.807 105.784 215.227" stroke="#D6FFA9" stroke-width="4" stroke-linecap="round" stroke-linejoin="round"/>
<path d="M205.785 186.393C202.275 184.717 200.517 185.361 198.89 186.116" stroke="#FFAFAF" stroke-width="4" stroke-linecap="round" stroke-linejoin="round"/>
<path d="M128.063 230.74C129.533 231.926 131.583 232.137 133.621 232.29" stroke="#FFAFAF" stroke-width="4" stroke-linecap="round" stroke-linejoin="round"/>
<rect x="132.755" y="170.579" width="8" height="22" rx="4" fill="#746CA0"/>
<rect x="156.755" y="170.579" width="8" height="22" rx="4" fill="#746CA0"/>
<path d="M141.255 205.079C141.255 205.079 145.726 202.079 150.234 202.079C154.743 202.079 159.275 205.079 159.275 205.079" stroke="#746CA0" stroke-width="3" stroke-linecap="round" stroke-linejoin="round"/>
<path opacity="0.5" d="M271.12 121.869C304.106 55.1598 252.024 37.7202 252.024 37.7202C216.471 34.7568 202.201 59.5709 184.477 62.3804C150.562 67.7563 121.517 39.8566 127.465 12.5592C129.71 2.25544 157.35 -10.505 164.504 36.655C167.024 53.2692 163.261 71.2598 134.924 79.7614C94.1045 92.0074 71.5168 44.7107 69.4125 43.3149" stroke="url(#paint5_linear_2_54)" stroke-width="4" stroke-linecap="round" stroke-linejoin="round" stroke-dasharray="4 10"/>
<ellipse opacity="0.4" cx="49.6389" cy="35.5504" rx="8.00354" ry="10.5357" transform="rotate(-120 49.6389 35.5504)" fill="#CED8E5"/>
<ellipse opacity="0.4" cx="73.8614" cy="20.9494" rx="8.00354" ry="10.5357" transform="rotate(60 73.8614 20.9494)" fill="#CED8E5"/>
<path d="M58.9174 34.2937C55.4605 33.3675 53.4091 29.8142 54.3354 26.3574L56.2362 19.2633L63.3119 21.1593C66.7688 22.0855 68.8202 25.6388 67.894 29.0956L65.9931 36.1897L58.9174 34.2937Z" fill="#A8B7C5"/>
<mask id="mask1_2_54" style="mask-type:luminance" maskUnits="userSpaceOnUse" x="54" y="19" width="15" height="18">
<path d="M58.9174 34.2937C55.4605 33.3675 53.4091 29.8142 54.3354 26.3574L56.2362 19.2633L63.3119 21.1593C66.7688 22.0855 68.8202 25.6388 67.894 29.0956L65.9931 36.1897L58.9174 34.2937Z" fill="white"/>
</mask>
<g mask="url(#mask1_2_54)">
<rect x="55.74" y="35.9493" width="2.18278" height="15.9851" transform="rotate(-120 55.74 35.9493)" fill="#DDE5F2"/>
<path fill-rule="evenodd" clip-rule="evenodd" d="M53.3611 30.791L52.2694 28.9006L66.1122 20.9104L67.204 22.8009L53.3611 30.791Z" fill="#DDE5F2"/>
</g>
<path d="M54.8164 11.1982L54.9698 5.74189" stroke="#8696C5" stroke-width="0.72"/>
<path d="M52.1459 12.7425L47.5965 9.40834" stroke="#8696C5" stroke-width="0.72"/>
<ellipse cx="55.3975" cy="16.7788" rx="5.82076" ry="5.81278" transform="rotate(-75 55.3975 16.7788)" fill="#8B9AA8"/>
<defs>
<linearGradient id="paint0_linear_2_54" x1="156.289" y1="119.14" x2="219.011" y2="187.731" gradientUnits="userSpaceOnUse">
<stop stop-color="#FFF2D2"/>
<stop offset="1" stop-color="#FFE0A6"/>
</linearGradient>
<linearGradient id="paint1_linear_2_54" x1="188.905" y1="98.8641" x2="159.815" y2="130.633" gradientUnits="userSpaceOnUse">
<stop stop-opacity="0.01"/>
<stop offset="1"/>
</linearGradient>
<linearGradient id="paint2_linear_2_54" x1="87.4083" y1="187.611" x2="142.911" y2="226.861" gradientUnits="userSpaceOnUse">
<stop stop-color="#FFEFFD"/>
<stop offset="1" stop-color="#FFDBF9"/>
</linearGradient>
<linearGradient id="paint3_linear_2_54" x1="70.8723" y1="198.692" x2="110.397" y2="251.062" gradientUnits="userSpaceOnUse">
<stop stop-color="#FFEFFD"/>
<stop offset="1" stop-color="#FFDBF9"/>
</linearGradient>
<linearGradient id="paint4_linear_2_54" x1="121.902" y1="182.767" x2="168.286" y2="225.192" gradientUnits="userSpaceOnUse">
<stop stop-color="#FFEFFD"/>
<stop offset="1" stop-color="#FFDBF9"/>
</linearGradient>
<linearGradient id="paint5_linear_2_54" x1="280.591" y1="-45.8164" x2="100.349" y2="-67.9259" gradientUnits="userSpaceOnUse">
<stop stop-color="#95ABC2" stop-opacity="0.244084"/>
<stop offset="1" stop-color="#5C738E"/>
</linearGradient>
</defs>
</svg>
